HIERARCHY
ROOT hip
{
  OFFSET 0 0 0
  CHANNELS 6 Xposition Yposition Zposition Zrotation Yrotation Xrotation
  JOINT abdomen
  {
    OFFSET 0 20.6881 -0.73152
    CHANNELS 3 Zrotation Xrotation Yrotation
    JOINT chest
    {
      OFFSET 0 11.7043 -0.48768
      CHANNELS 3 Zrotation Xrotation Yrotation
      JOINT neck
      {
        OFFSET 0 22.1894 -2.19456
        CHANNELS 3 Zrotation Xrotation Yrotation
        JOINT head
        {
          OFFSET -0.24384 7.07133 1.2192
          CHANNELS 3 Zrotation Xrotation Yrotation
          JOINT leftEye
          {
            OFFSET 4.14528 8.04674 8.04672
            CHANNELS 3 Zrotation Xrotation Yrotation
            End Site
            {
              OFFSET 1 0 0
            }
          }
          JOINT rightEye
          {
            OFFSET -3.6576 8.04674 8.04672
            CHANNELS 3 Zrotation Xrotation Yrotation
            End Site
            {
              OFFSET 1 0 0
            }
          }
        }
      }
      JOINT rCollar
      {
        OFFSET -2.68224 19.2634 -4.8768
        CHANNELS 3 Zrotation Xrotation Yrotation
        JOINT rShldr
        {
          OFFSET -8.77824 -1.95073 1.46304
          CHANNELS 3 Zrotation Xrotation Yrotation
          JOINT rForeArm
          {
            OFFSET -28.1742 -1.7115 0.48768
            CHANNELS 3 Zrotation Xrotation Yrotation
            JOINT rHand
            {
              OFFSET -22.5879 0.773209 7.07136
              CHANNELS 3 Zrotation Xrotation Yrotation
              JOINT rThumb1
              {
                OFFSET -1.2192 -0.487915 3.41376
                CHANNELS 3 Zrotation Xrotation Yrotation
                JOINT rThumb2
                {
                  OFFSET -3.37035 -0.52449 3.41376
                  CHANNELS 3 Zrotation Xrotation Yrotation
                  End Site
                  {
                    OFFSET -1.78271 -1.18214 1.43049
                  }
                }
              }
              JOINT rIndex1
              {
                OFFSET -7.75947 0.938293 5.60832
                CHANNELS 3 Zrotation Xrotation Yrotation
                JOINT rIndex2
                {
                  OFFSET -2.54057 -0.884171 1.56538
                  CHANNELS 3 Zrotation Xrotation Yrotation
                  End Site
                  {
                    OFFSET -1.62519 -0.234802 1.16502
                  }
                }
              }
              JOINT rMid1
              {
                OFFSET -8.24714 1.18213 3.41376
                CHANNELS 3 Zrotation Xrotation Yrotation
                JOINT rMid2
                {
                  OFFSET -3.10165 -0.590103 1.0647
                  CHANNELS 3 Zrotation Xrotation Yrotation
                  End Site
                  {
                    OFFSET -2.48547 -0.328903 0.83742
                  }
                }
              }
              JOINT rRing1
              {
                OFFSET -8.82822 0.546677 1.51678
                CHANNELS 3 Zrotation Xrotation Yrotation
                JOINT rRing2
                {
                  OFFSET -2.60934 -0.819778 -0.0198488
                  CHANNELS 3 Zrotation Xrotation Yrotation
                  End Site
                  {
                    OFFSET -2.33842 -0.294052 0.168128
                  }
                }
              }
              JOINT rPinky1
              {
                OFFSET -8.27202 -0.0477905 -0.4584
                CHANNELS 3 Zrotation Xrotation Yrotation
                JOINT rPinky2
                {
                  OFFSET -1.82734 -0.647385 -0.700984
                  CHANNELS 3 Zrotation Xrotation Yrotation
                  End Site
                  {
                    OFFSET -1.69225 -0.51767 -0.607171
                  }
                }
              }
            }
          }
        }
      }
      JOINT lCollar
      {
        OFFSET 2.68224 19.2634 -4.8768
        CHANNELS 3 Zrotation Xrotation Yrotation
        JOINT lShldr
        {
          OFFSET 8.77824 -1.95073 1.46304
          CHANNELS 3 Zrotation Xrotation Yrotation
          JOINT lForeArm
          {
            OFFSET 28.1742 -1.7115 0.48768
            CHANNELS 3 Zrotation Xrotation Yrotation
            JOINT lHand
            {
              OFFSET 22.5879 0.773209 7.07136
              CHANNELS 3 Zrotation Xrotation Yrotation
              JOINT lThumb1
              {
                OFFSET 1.2192 -0.487915 3.41376
                CHANNELS 3 Zrotation Xrotation Yrotation
                JOINT lThumb2
                {
                  OFFSET 3.37035 -0.52449 3.41376
                  CHANNELS 3 Zrotation Xrotation Yrotation
                  End Site
                  {
                    OFFSET 1.78271 -1.18214 1.43049
                  }
                }
              }
              JOINT lIndex1
              {
                OFFSET 7.75947 0.938293 5.60832
                CHANNELS 3 Zrotation Xrotation Yrotation
                JOINT lIndex2
                {
                  OFFSET 2.54057 -0.884171 1.56538
                  CHANNELS 3 Zrotation Xrotation Yrotation
                  End Site
                  {
                    OFFSET 1.62519 -0.234802 1.16502
                  }
                }
              }
              JOINT lMid1
              {
                OFFSET 8.24714 1.18213 3.41376
                CHANNELS 3 Zrotation Xrotation Yrotation
                JOINT lMid2
                {
                  OFFSET 3.10165 -0.590103 1.0647
                  CHANNELS 3 Zrotation Xrotation Yrotation
                  End Site
                  {
                    OFFSET 2.48547 -0.328903 0.83742
                  }
                }
              }
              JOINT lRing1
              {
                OFFSET 8.82822 0.546677 1.51678
                CHANNELS 3 Zrotation Xrotation Yrotation
                JOINT lRing2
                {
                  OFFSET 2.60934 -0.819778 -0.0198488
                  CHANNELS 3 Zrotation Xrotation Yrotation
                  End Site
                  {
                    OFFSET 2.33842 -0.294052 0.168128
                  }
                }
              }
              JOINT lPinky1
              {
                OFFSET 8.27202 -0.0477905 -0.4584
                CHANNELS 3 Zrotation Xrotation Yrotation
                JOINT lPinky2
                {
                  OFFSET 1.82734 -0.647385 -0.700984
                  CHANNELS 3 Zrotation Xrotation Yrotation
                  End Site
                  {
                    OFFSET 1.69225 -0.51767 -0.607171
                  }
                }
              }
            }
          }
        }
      }
    }
  }
  JOINT rButtock
  {
    OFFSET -8.77824 4.35084 1.2192
    CHANNELS 3 Zrotation Xrotation Yrotation
    JOINT rThigh
    {
      OFFSET 0 -1.70687 -2.19456
      CHANNELS 3 Zrotation Xrotation Yrotation
      JOINT rShin
      {
        OFFSET 0 -36.8199 0.73152
        CHANNELS 3 Zrotation Xrotation Yrotation
        JOINT rFoot
        {
          OFFSET 0.73152 -45.1104 -5.12064
          CHANNELS 3 Zrotation Xrotation Yrotation
          End Site
          {
            OFFSET -1.1221 -3.69964 12.103
          }
        }
      }
    }
  }
  JOINT lButtock
  {
    OFFSET 8.77824 4.35084 1.2192
    CHANNELS 3 Zrotation Xrotation Yrotation
    JOINT lThigh
    {
      OFFSET 0 -1.70687 -2.19456
      CHANNELS 3 Zrotation Xrotation Yrotation
      JOINT lShin
      {
        OFFSET 0 -36.8199 0.73152
        CHANNELS 3 Zrotation Xrotation Yrotation
        JOINT lFoot
        {
          OFFSET -0.73152 -45.1104 -5.12064
          CHANNELS 3 Zrotation Xrotation Yrotation
          End Site
          {
            OFFSET 1.1221 -3.69964 12.103
          }
        }
      }
    }
  }
}
MOTION
Frames:	4
Frame Time:	0.00833333
-63.4549 68.7328 96.2922 -171.306 -19.8163 -176.62 -7.31209 9.24644 5.01247 -0.422198 -14.9016 0.927515 9.90938 0.739997 12.6821 3.14673 -13.3896 22.6494 -0.0 0.0 0.0 -0.0 0.0 0.0 3.39395e-15 -1.27221e-13 4.45775e-14 51.5381 70.4504 -25.9205 -27.9251 -30.1829 67.5406 -0.694774 22.9808 3.41688 9.52186e-10 1.43907e-09 -2.77271e-10 1.63935e-09 2.48802e-09 -4.9607e-10 9.52185e-10 1.43906e-09 -2.77293e-10 7.73091 5.47488 0.417314 9.52175e-10 1.43906e-09 -2.77271e-10 2.90554 0.965183 0.102902 9.52186e-10 1.43908e-09 -2.77272e-10 10.2786 0.731801 0.0259123 9.52183e-10 1.43908e-09 -2.77265e-10 2.22167 -0.733487 -0.20892 3.36496e-15 -1.27223e-13 4.44284e-14 -15.8743 -20.733 -56.3176 24.1562 -19.3918 -50.1074 11.0873 -64.8117 17.3869 -4.61715e-10 3.86453e-10 8.58718e-11 -7.96436e-10 6.86068e-10 1.23798e-10 -4.6172e-10 3.86465e-10 8.58909e-11 -7.73091 5.47488 -0.417314 -4.61713e-10 3.86459e-10 8.58782e-11 -2.90554 0.965183 -0.102902 -4.61715e-10 3.86457e-10 8.58782e-11 -10.2786 0.731801 -0.0259123 -4.61712e-10 3.86456e-10 8.58813e-11 -2.22167 -0.733487 0.20892 -2.03217e-16 0.0 -3.88251e-19 -12.1428 -17.8646 -24.7523 -0.347671 40.6392 0.959439 -3.45649 -15.9768 -11.6087 2.03217e-16 0.0 3.88251e-19 75.4847 -44.2405 66.3531 175.631 76.3986 -178.421 6.4464 29.3739 -16.8217
-62.5956 68.86 96.1191 -170.918 -19.5401 -177.194 -7.80387 9.88281 5.08349 -0.341008 -15.236 0.904557 9.92952 0.731843 12.6279 3.74825 -13.8357 22.6062 -0.0 0.0 0.0 -0.0 0.0 0.0 6.81237e-14 -1.85595e-13 1.91711e-14 52.4351 69.8864 -27.0967 -27.8156 -29.6 66.5879 -0.670264 22.5867 3.35183 4.95442e-10 1.09132e-09 -3.79303e-10 8.49507e-10 1.87769e-09 -6.62754e-10 4.9544e-10 1.09132e-09 -3.79326e-10 7.73091 5.47488 0.417314 4.95434e-10 1.09132e-09 -3.79303e-10 2.90554 0.965183 0.102902 4.95442e-10 1.09133e-09 -3.79304e-10 10.2786 0.731801 0.0259123 4.95438e-10 1.09133e-09 -3.79296e-10 2.22167 -0.733487 -0.20892 6.81229e-14 -1.85604e-13 1.90088e-14 -15.5455 -21.6539 -56.4223 24.025 -19.1426 -49.6993 10.7171 -64.299 16.9771 -2.52683e-10 3.03015e-10 -3.51345e-11 -4.30086e-10 5.27077e-10 -7.34269e-11 -2.5269e-10 3.03025e-10 -3.51171e-11 -7.73091 5.47488 -0.417314 -2.52682e-10 3.03019e-10 -3.51301e-11 -2.90554 0.965183 -0.102902 -2.52684e-10 3.03017e-10 -3.51306e-11 -10.2786 0.731801 -0.0259123 -2.52681e-10 3.03016e-10 -3.51294e-11 -2.22167 -0.733487 0.20892 -2.03217e-16 0.0 -3.88251e-19 -11.1708 -17.2814 -24.1814 -0.340888 39.9507 0.940947 -3.64896 -16.6545 -11.4285 2.03217e-16 0.0 3.88251e-19 79.4671 -42.8422 70.2821 176.66 70.8494 -179.66 7.7377 30.8507 -18.5305
-61.7937 68.9775 95.9669 -170.724 -19.0513 -177.651 -8.47588 10.4803 5.31496 -0.301177 -15.5628 0.912434 9.95717 0.713705 12.5724 4.39958 -14.1917 22.5542 -0.0 0.0 0.0 -0.0 0.0 0.0 1.833e-13 -3.03708e-13 -5.49702e-14 52.9264 69.3506 -27.6744 -27.6875 -28.9805 65.5854 -0.642617 22.1133 3.27457 -1.04494e-10 8.23187e-10 -6.66401e-10 -1.89714e-10 1.39838e-09 -1.14582e-09 -1.04497e-10 8.23184e-10 -6.66428e-10 7.73091 5.47488 0.417314 -1.04498e-10 8.23183e-10 -6.66403e-10 2.90554 0.965183 0.102902 -1.04493e-10 8.23189e-10 -6.66404e-10 10.2786 0.731801 0.0259123 -1.045e-10 8.23192e-10 -6.66395e-10 2.22167 -0.733487 -0.20892 1.8332e-13 -3.03728e-13 -5.51627e-14 -15.1991 -22.5006 -56.3953 23.9205 -18.9485 -49.3682 10.3117 -63.7094 16.5262 1.10332e-10 8.68792e-11 -1.77329e-10 2.02611e-10 1.32701e-10 -2.99066e-10 1.10324e-10 8.68864e-11 -1.77316e-10 -7.73091 5.47488 -0.417314 1.10332e-10 8.68804e-11 -1.77328e-10 -2.90554 0.965183 -0.102902 1.1033e-10 8.68793e-11 -1.7733e-10 -10.2786 0.731801 -0.0259123 1.10334e-10 8.68793e-11 -1.77332e-10 -2.22167 -0.733487 0.20892 -2.03217e-16 0.0 -3.88251e-19 -10.3242 -16.8578 -23.1824 -0.332313 39.4275 0.944638 -3.8202 -17.26 -11.223 2.03217e-16 0.0 3.88251e-19 83.057 -40.848 73.9915 177.195 65.2268 179.569 9.02314 32.0131 -20.2626
-61.0595 69.0962 95.8293 -170.725 -18.4061 -177.987 -9.24816 10.9975 5.6211 -0.247305 -15.8523 0.941419 9.97507 0.690365 12.5087 5.06603 -14.4923 22.4855 -0.0 0.0 0.0 -0.0 0.0 0.0 2.91413e-13 -4.10503e-13 -1.38948e-13 53.0719 68.8577 -27.793 -27.5463 -28.3635 64.6128 -0.603954 21.4689 3.16949 -7.105e-10 3.73521e-10 -8.77851e-10 -1.23865e-09 6.06518e-10 -1.49862e-09 -7.10504e-10 3.73518e-10 -8.77879e-10 7.73091 5.47488 0.417314 -7.105e-10 3.73515e-10 -8.77854e-10 2.90554 0.965183 0.102902 -7.10498e-10 3.73517e-10 -8.77853e-10 10.2786 0.731801 0.0259123 -7.10507e-10 3.73522e-10 -8.77845e-10 2.22167 -0.733487 -0.20892 2.91443e-13 -4.10533e-13 -1.39174e-13 -14.7931 -23.2434 -56.2359 23.8482 -18.816 -49.1354 9.91951 -63.1084 16.0875 4.66655e-10 -1.33194e-10 -3.12146e-10 8.23125e-10 -2.67283e-10 -5.12293e-10 4.66646e-10 -1.3319e-10 -3.12137e-10 -7.73091 5.47488 -0.417314 4.66655e-10 -1.33195e-10 -3.12148e-10 -2.90554 0.965183 -0.102902 4.66651e-10 -1.33196e-10 -3.12151e-10 -10.2786 0.731801 -0.0259123 4.66658e-10 -1.33195e-10 -3.12157e-10 -2.22167 -0.733487 0.20892 -2.03217e-16 0.0 -3.88251e-19 -9.61403 -16.5635 -21.9821 -0.322185 39.0596 0.969019 -3.97148 -17.7878 -11.0372 2.03217e-16 0.0 3.88251e-19 86.0086 -38.1292 76.9016 177.57 59.707 178.904 10.363 32.8717 -22.1858
